<svg width="485" height="298" viewBox="0 0 485 298" fill="none" xmlns="http://www.w3.org/2000/svg">
<path d="M29.7423 296.851C29.7423 296.851 -29.8456 226.125 19.6649 149.554C63.5941 81.6149 111.695 74.586 149.272 102.156C165.277 113.899 214.535 115.276 253.809 46.1461C307.367 -48.1279 493.02 9.04897 459.168 154.093C442.789 224.285 509.023 226.836 475.274 297L29.7423 296.851Z" fill="#F0F9FF"/>
<path d="M117.521 109.252C117.472 108.953 116.836 105.742 112.353 106.289C112.353 106.289 114.585 106.227 115.104 107.235C115.104 107.235 113.437 106.155 112.277 106.774C111.116 107.396 110.711 109.87 110.805 110.648C110.9 111.426 111.904 113.82 112.704 113.908C113.007 113.941 113.341 113.867 113.639 113.76C113.48 114.147 113.33 114.573 113.195 115.04C111.945 119.375 114.299 123.034 115.749 122.356C116.679 121.92 117.191 123.702 117.191 123.702L125.478 113.773C125.478 113.773 120.993 106.422 117.521 109.252Z" fill="#2C3A64"/>
<path d="M128.316 228.844L126.301 229.675C126.301 229.675 117.547 216.228 116.47 204.395C116.277 202.284 116.341 200.236 116.758 198.346C116.758 198.346 116.672 197.804 116.522 196.848C116.453 196.401 116.368 195.863 116.27 195.248C115.986 193.442 115.594 190.971 115.147 188.157C114.117 181.681 112.782 173.404 111.746 167.318L112.289 167.125L118.164 165.026L119.378 160.754L123.753 159.478C123.753 159.478 124.731 161.596 125.605 171.599C125.766 172.912 125.912 174.359 126.023 175.928C126.363 180.717 126.388 186.66 125.606 193.451C125.405 195.189 125.152 196.985 124.838 198.83C124.607 200.181 124.573 202.024 124.67 204.141C125.111 213.812 128.316 228.844 128.316 228.844Z" fill="#2B478B"/>
<path d="M126.023 175.928L116.522 196.848C116.453 196.401 116.368 195.863 116.27 195.248C115.986 193.442 115.594 190.971 115.147 188.157C114.117 181.681 112.782 173.404 111.746 167.318L112.289 167.125L118.164 165.026L119.378 160.754L123.753 159.478C123.753 159.478 124.731 161.596 125.605 171.599C125.766 172.912 125.912 174.359 126.023 175.928Z" fill="#233862"/>
<path d="M121.843 162.162L121.623 160.073C117.939 161.158 108.094 157.044 108.094 157.044C108.094 157.044 104.525 160.52 104.993 168.851C105.222 172.917 105.64 190.195 106.076 195.308C106.234 197.161 106.372 198.481 106.429 199.008C106.43 199.01 106.43 199.012 106.43 199.012C106.447 199.172 106.396 199.325 106.323 199.466C105.68 200.673 105.148 201.93 104.712 203.218C100.429 215.86 105.372 231.43 105.372 231.43L106.654 230.857C106.654 230.857 109.467 213.53 111.753 205.876C112.141 204.577 112.513 203.556 112.854 202.947C113.847 201.17 114.769 198.267 115.607 194.816C117.189 188.288 118.462 179.796 119.31 173.242C119.426 173.248 121.843 162.162 121.843 162.162Z" fill="#2B478B"/>
<path d="M123.044 145.007C123.074 145.117 123.102 145.225 123.146 145.337C124.585 149.83 127.149 154.548 128.898 156.27C130.046 157.408 133.201 158.588 135.885 159.433C137.666 160.011 139.136 160.318 139.787 160.5L140.833 158.739C140.833 158.739 139.439 157.774 137.74 156.507C135.379 154.731 132.428 152.391 131.862 151.386C130.554 149.048 129.687 141.904 128.565 137.081C128.509 136.821 128.452 136.569 128.394 136.321C128.351 136.139 128.308 135.961 128.264 135.783C128.255 135.748 128.248 135.695 128.224 135.656C128.163 135.455 128.116 135.273 128.065 135.109C128.067 135.093 128.054 135.074 128.043 135.054C127.817 134.253 127.286 133.133 127.286 133.133C126.958 132.572 126.601 132.292 126.214 132.388C126.214 132.388 125.688 132.564 125.011 133.08C124.869 133.188 124.72 133.311 124.568 133.449C124.466 133.514 124.389 133.602 124.312 133.692C123.777 134.22 123.225 134.951 122.802 135.93C122.48 136.672 122.228 137.548 122.103 138.606C121.885 140.329 122.301 142.628 123.044 145.007Z" fill="#FFB27D"/>
<path d="M125.042 136.809C123.974 137.579 122.644 138.203 120.985 138.572C114.766 139.962 112.546 134.102 111.757 130.105C112.614 129.597 113.409 129.503 113.869 129.456C114.317 129.413 114.788 129.388 115.177 129.38C115.886 128.813 116.981 126.437 117.305 122.702L117.593 122.797L122.425 124.425C122.425 124.425 122.158 126.134 122.008 127.752C121.891 129.017 121.847 130.228 122.056 130.531C122.434 130.635 122.661 130.701 122.661 130.701C122.661 130.701 122.661 130.703 122.663 130.707C122.725 130.827 124.072 133.446 125.042 136.809Z" fill="#FFB27D"/>
<path d="M122.425 124.427C122.425 124.427 122.157 126.134 122.008 127.752C119.257 127.359 118.051 124.41 117.593 122.799L122.425 124.427Z" fill="#ED985F"/>
<path d="M123.208 126.063C123.208 126.063 116.67 125.457 117.073 120.954C117.475 116.449 116.903 113.337 121.094 113.533C125.285 113.728 125.942 115.536 126.137 117.076C126.333 118.617 124.919 126.104 123.208 126.063Z" fill="#FFB27D"/>
<path d="M128.394 136.321C128.351 136.139 128.308 135.961 128.264 135.783C128.255 135.748 128.248 135.695 128.224 135.656C128.163 135.455 128.116 135.273 128.065 135.109C128.067 135.093 128.054 135.074 128.043 135.054C127.817 134.253 127.286 133.133 127.286 133.133C127.049 132.726 126.81 132.369 126.549 132.238C126.344 132.095 125.208 131.362 122.661 130.701C122.661 130.701 122.661 130.703 122.663 130.707C122.728 130.873 124.469 135.269 124.181 136.313C123.887 137.374 115.454 135.455 114.92 134.792C114.493 134.261 114.076 131.155 113.928 129.943C113.89 129.642 113.869 129.456 113.869 129.456C113.869 129.456 110.819 129.49 109.236 130.514C109.236 130.514 110.109 132.005 110.584 133.727C110.629 133.891 110.671 134.057 110.707 134.221C110.787 134.571 110.843 134.925 110.87 135.275C110.906 135.736 110.746 136.176 110.458 136.628C110.196 137.042 109.823 137.468 109.397 137.929C109.119 138.228 108.82 138.543 108.512 138.881C108.511 138.881 108.511 138.883 108.511 138.883C108.754 140.963 109.333 144.353 109.463 148.049C109.496 148.987 109.335 149.915 109.002 150.768C108.87 151.108 108.71 151.436 108.525 151.747C107.046 154.226 104.486 159.106 105.532 161.718C105.919 164.279 125.918 164.509 125.13 161.755C125.13 161.755 126.013 145.593 127.105 141.551C127.143 141.402 127.178 141.258 127.207 141.113C127.512 139.575 127.246 138.089 126.907 136.768C127.432 136.526 127.997 136.393 128.394 136.321Z" fill="#FF9843"/>
<path d="M126.17 114.551C125.283 113.083 124.494 113.296 124.03 113.656C120.658 111.088 118.069 114.045 118.069 114.045C117.34 117.229 115.069 118.847 115.069 118.847C115.069 118.847 116.185 119.793 118.999 119.316C119.858 119.17 120.666 118.593 121.374 117.864C120.078 119.801 118.433 121.118 118.433 121.118C121.86 119.805 123.632 114.903 123.811 114.383C124.174 114.825 124.882 115.773 125.045 116.642C125.267 117.827 125.2 120.204 125.828 120.192C125.828 120.192 127.499 116.75 126.17 114.551Z" fill="#2C3A64"/>
<path d="M119.173 157.33C115.31 157.905 111.463 153.993 109.002 150.768C109.335 149.915 109.496 148.987 109.463 148.049C109.333 144.353 108.754 140.963 108.511 138.883C108.511 138.883 108.511 138.881 108.512 138.881C108.82 138.543 109.119 138.228 109.397 137.929C109.823 137.468 110.196 137.042 110.458 136.628C114.391 142.034 124.412 156.55 119.173 157.33Z" fill="#ED7D2B"/>
<path d="M112.829 232.591H102.679C102.679 232.591 102.435 230.877 102.966 229.577C103.474 228.33 104.269 227.763 104.079 226.254C104.724 226.989 105.775 227.814 107.242 227.595C107.422 227.918 108.403 229.645 109.004 230.124C109.667 230.652 112.625 230.462 112.829 232.591Z" fill="#233862"/>
<path d="M134.623 232.591H124.473C124.473 232.591 124.093 230.799 124.759 229.577C125.35 228.498 125.124 227.882 124.687 226.989C125.146 227.198 125.741 227.388 126.396 227.347C126.902 227.314 127.437 227.06 127.906 226.759C128.343 227.31 130.213 229.659 130.798 230.124C131.461 230.652 134.419 230.462 134.623 232.591Z" fill="#233862"/>
<path d="M121.649 123.458C121.649 123.458 121.74 124.054 123.065 124.056C123.065 124.056 124.177 124.056 124.18 123.409C124.18 123.409 123.132 122.874 121.649 123.458Z" fill="white"/>
<path d="M138.535 161.221C137.999 162.026 136.582 163.254 134.756 162.315C133.448 161.655 132.054 161.162 131.376 160.931C131.106 160.856 130.953 160.803 130.953 160.803L131.817 158.463C131.817 158.463 131.842 158.479 131.906 158.497C132.381 158.643 134.727 158.652 136.017 159.417C137.51 160.302 139.166 160.274 138.535 161.221Z" fill="#FFB27D"/>
<path d="M132.652 158.796L132.29 161.001C132.29 161.001 131.611 160.931 130.53 160.814C130.205 160.778 130.019 160.745 130.019 160.745C129.154 160.641 128.116 160.487 126.986 160.324L126.971 160.325C125.032 160.003 122.857 159.602 121.011 159.101C119.712 158.735 118.577 158.318 117.792 157.868C117.712 157.825 117.648 157.78 117.566 157.719C115.676 156.46 113.235 152.456 111.24 148.103C110.963 147.502 110.701 146.9 110.442 146.314C109.505 144.132 108.723 141.969 108.209 140.085C107.89 138.963 107.657 137.935 107.559 137.079C107.52 136.776 107.483 136.493 107.477 136.221C107.466 136.067 107.457 135.914 107.451 135.766C108.215 135.025 109.976 133.643 112.379 133.786C112.429 133.881 112.479 133.977 112.529 134.075C113.565 136.162 114.696 138.885 115.766 141.596C116.358 143.083 116.933 144.571 117.5 145.941C117.826 146.774 118.147 147.557 118.448 148.275C119.031 149.643 119.545 150.746 119.982 151.433C120.262 151.882 121.012 152.471 121.997 153.123C123.709 154.263 126.187 155.602 128.338 156.684C129.231 157.141 130.075 157.552 130.775 157.891C131.906 158.444 132.652 158.796 132.652 158.796Z" fill="#FFB27D"/>
<path d="M112.524 134.081C109.529 133.469 107.471 136.217 107.471 136.217C107.125 131.341 109.263 130.463 109.263 130.463C110.112 129.974 111.266 131.565 112.524 134.081Z" fill="#FF9843"/>
<path d="M137.501 238.933H91.6668C91.0597 238.933 90.5633 238.384 90.5633 237.712V233.814C90.5633 233.142 91.0597 232.591 91.6668 232.591H137.501C138.108 232.591 138.604 233.142 138.604 233.814V237.712C138.604 238.384 138.108 238.933 137.501 238.933Z" fill="#EE9849"/>
<path d="M102.205 238.933L101.635 242.645L93.3731 296.367C93.35 296.553 93.1637 296.695 92.9412 296.695C92.5172 296.695 92.1868 296.385 92.2318 296.025L98.784 241.011L99.0321 238.933H102.205Z" fill="#EFCBAB"/>
<path d="M102.205 238.933L101.635 242.645C101.243 241.165 98.784 241.011 98.784 241.011L99.0321 238.933H102.205Z" fill="#CCA07F"/>
<path d="M136.226 296.695C136.004 296.695 135.818 296.553 135.795 296.367L127.177 240.329L126.963 238.933H130.135L130.578 242.643L136.936 296.025C136.981 296.385 136.65 296.695 136.226 296.695Z" fill="#EFCBAB"/>
<path d="M130.578 242.643C129.77 240.874 127.178 240.331 127.178 240.331C127.178 240.331 127.178 240.331 127.177 240.329L126.963 238.933H130.135L130.578 242.643Z" fill="#CCA07F"/>
<path d="M334.662 265.754C334.662 265.754 339.961 259.785 334.987 255.992C334.987 255.992 331.354 253.87 328.389 254.043C328.389 254.043 332.589 260.838 331.231 261.511C329.873 262.187 327.116 253.615 327.116 253.615C327.116 253.615 318.85 252.843 316.189 254.075C316.189 254.075 323.257 259.659 321.769 259.992C320.278 260.324 312.645 254.843 312.645 254.843C312.645 254.843 304.947 256.107 305.358 260.639C305.767 265.17 308.418 266.569 309.586 266.449C310.751 266.329 317.569 263.818 317.72 264.738C317.867 265.659 313.76 268.672 310.889 268.813C310.889 268.813 316.316 274.589 319.922 272.922C323.526 271.254 323.834 268.612 326.082 267.621C328.332 266.631 330.249 266.633 329.322 267.645C328.394 268.655 324.327 269.636 323.042 271.831C321.754 274.026 320.601 275.507 324.33 274.964C328.064 274.422 334.13 271.789 334.396 268.77C334.662 265.754 334.662 265.754 334.662 265.754Z" fill="#599DAD"/>
<path d="M309.14 260.76C309.14 260.76 330.046 259.984 334.662 265.754C334.662 265.754 335.682 268.704 338.824 271.393L339.315 272.678C339.315 272.678 335.689 268.995 334.396 268.77C334.396 268.77 336.422 261.623 309.14 260.76Z" fill="#599DAD"/>
<path d="M338.826 271.393C338.826 271.393 343.311 274.593 343.622 280.316L342.808 280.387C342.808 280.387 341.374 274.469 338.785 272.157C336.194 269.842 338.826 271.393 338.826 271.393Z" fill="#599DAD"/>
<path d="M353.198 258.247C353.198 258.247 344.763 253.688 348.701 247.503C348.701 247.503 351.848 243.703 355.221 242.728C355.221 242.728 353.423 251.953 355.221 252.169C357.022 252.387 356.46 241.75 356.46 241.75C356.46 241.75 365.343 237.628 368.83 237.953C368.83 237.953 363.32 246.96 365.117 246.743C366.918 246.525 373.102 237.41 373.102 237.41C373.102 237.41 382.21 235.782 383.672 240.991C385.135 246.2 382.773 248.806 381.426 249.131C380.073 249.456 371.415 249.347 371.641 250.432C371.866 251.518 377.713 253.253 380.975 252.278C380.975 252.278 377.376 260.85 372.654 260.416C367.928 259.984 366.467 257.162 363.545 256.944C360.62 256.728 358.483 257.487 359.947 258.247C361.408 259.006 366.356 258.495 368.719 260.433C371.079 262.371 372.99 263.565 368.604 264.432C364.218 265.3 356.345 264.759 354.773 261.503C353.198 258.247 353.198 258.247 353.198 258.247Z" fill="#6BB7BF"/>
<path d="M339.778 251.962C339.778 251.962 350.895 245.952 345.708 237.797C345.708 237.797 341.558 232.791 337.112 231.503C337.112 231.503 339.482 243.663 337.112 243.95C334.74 244.237 335.481 230.216 335.481 230.216C335.481 230.216 323.769 224.779 319.174 225.21C319.174 225.21 326.437 237.083 324.065 236.796C321.693 236.511 313.542 224.495 313.542 224.495C313.542 224.495 301.534 222.349 299.609 229.214C297.68 236.081 300.793 239.515 302.571 239.945C304.349 240.373 315.765 240.23 315.469 241.661C315.173 243.092 307.464 245.381 303.165 244.093C303.165 244.093 307.907 255.393 314.133 254.822C320.36 254.248 322.287 250.531 326.141 250.244C329.996 249.957 332.81 250.96 330.886 251.962C328.959 252.963 322.436 252.289 319.323 254.843C316.21 257.398 313.688 258.97 319.47 260.115C325.251 261.259 335.628 260.545 337.704 256.253C339.778 251.962 339.778 251.962 339.778 251.962Z" fill="#86D1CD"/>
<path d="M305.096 231.359C305.096 231.359 336.222 241.087 339.781 251.961C339.781 251.961 339.632 256.824 342.747 262.403V264.549C342.747 264.549 339.484 257.254 337.705 256.253C337.705 256.253 344.673 246.81 305.096 231.359Z" fill="#6BB7BF"/>
<path d="M342.747 262.403C342.747 262.403 347.546 269.44 344.81 278.003L343.574 277.682C343.574 277.682 344.771 268.25 342.26 263.505C339.748 258.762 342.747 262.403 342.747 262.403Z" fill="#6BB7BF"/>
<path d="M340.376 296.575C352.403 296.575 362.154 287.164 362.154 275.556H318.599C318.599 287.164 328.347 296.575 340.376 296.575Z" fill="#EE9849"/>
<path d="M345.732 296.412C344.848 296.52 343.943 296.575 343.028 296.575C331 296.575 321.25 287.164 321.25 275.556H326.66C326.66 286.281 334.98 295.127 345.732 296.412Z" fill="#F3B175"/>
<path d="M362.451 297.643H318.294C318.294 296.211 319.499 295.05 320.983 295.05H359.765C361.25 295.05 362.451 296.211 362.451 297.643Z" fill="#EE9849"/>
<path d="M362.646 276.202H317.882V275.556H362.646V276.202Z" fill="#EE9849"/>
<path d="M454.269 198.836H397.379C396.427 198.836 395.645 198.085 395.645 197.165V189.671C395.645 188.751 396.427 188 397.379 188H454.269C455.221 188 456 188.751 456 189.671V197.165C456 198.085 455.221 198.836 454.269 198.836Z" fill="#EE9849"/>
<path d="M410.273 198.835L409.557 205.176L399.179 296.966C399.15 297.287 398.915 297.529 398.636 297.529C398.104 297.529 397.687 296.996 397.743 296.384L405.976 202.387L406.287 198.835H410.273Z" fill="#EFCBAB"/>
<path d="M410.273 198.835L409.557 205.176C409.066 202.65 405.976 202.387 405.976 202.387L406.287 198.835H410.273Z" fill="#CCA07F"/>
<path d="M453.017 297.529C452.738 297.529 452.501 297.287 452.472 296.966L441.644 201.221L441.378 198.835H445.362L445.673 202.387L445.92 205.172L453.908 296.384C453.962 296.996 453.549 297.529 453.017 297.529Z" fill="#EFCBAB"/>
<path d="M445.919 205.172C444.903 202.152 441.646 201.223 441.646 201.223C441.646 201.223 441.646 201.223 441.646 201.221L441.378 198.835H445.362L445.673 202.387L445.919 205.172Z" fill="#CCA07F"/>
<path d="M402.384 297.236H344.364L363.434 217.521H418.655L421.196 218.599L402.384 297.236Z" fill="#CCA07F"/>
<path d="M399.589 297.236H341.565L360.638 217.521H418.656L399.589 297.236Z" fill="#E3F0FF"/>
<path d="M403.079 228.728H376.301C375.712 228.728 375.115 229.195 374.979 229.766C374.842 230.337 375.214 230.804 375.805 230.804H402.583C403.174 230.804 403.768 230.337 403.908 229.766C404.044 229.195 403.673 228.728 403.079 228.728Z" fill="#CBE2F7"/>
<path d="M402.502 234.259H374.231C374.052 234.259 373.87 234.4 373.826 234.575C373.786 234.749 373.898 234.892 374.078 234.892H402.349C402.531 234.892 402.713 234.749 402.754 234.575C402.797 234.4 402.682 234.259 402.502 234.259Z" fill="#CBE2F7"/>
<path d="M402.152 235.72H373.881C373.699 235.72 373.517 235.863 373.477 236.037C373.436 236.212 373.549 236.353 373.728 236.353H402.002C402.181 236.353 402.363 236.212 402.403 236.037C402.447 235.863 402.334 235.72 402.152 235.72Z" fill="#CBE2F7"/>
<path d="M364.008 230.804H371.24C371.833 230.804 372.428 230.337 372.564 229.766C372.702 229.195 372.328 228.729 371.738 228.729H364.503C363.913 228.729 363.315 229.195 363.18 229.766C363.044 230.337 363.415 230.804 364.008 230.804Z" fill="#CBE2F7"/>
<path d="M398.667 244.818H371.892C371.301 244.818 370.703 245.287 370.568 245.856C370.43 246.427 370.804 246.896 371.395 246.896H398.17C398.762 246.896 399.359 246.427 399.494 245.856C399.632 245.287 399.259 244.818 398.667 244.818Z" fill="#CBE2F7"/>
<path d="M398.09 250.349H369.82C369.64 250.349 369.459 250.492 369.416 250.667C369.373 250.841 369.488 250.984 369.668 250.984H397.939C398.119 250.984 398.302 250.841 398.342 250.667C398.385 250.492 398.274 250.349 398.09 250.349Z" fill="#CBE2F7"/>
<path d="M397.743 251.81H369.471C369.291 251.81 369.108 251.953 369.067 252.128C369.025 252.302 369.136 252.445 369.319 252.445H397.588C397.772 252.445 397.952 252.302 397.995 252.128C398.035 251.953 397.92 251.81 397.743 251.81Z" fill="#CBE2F7"/>
<path d="M359.598 246.895H366.833C367.425 246.895 368.018 246.427 368.157 245.856C368.294 245.287 367.921 244.818 367.329 244.818H360.094C359.502 244.818 358.907 245.287 358.77 245.856C358.633 246.427 359.006 246.895 359.598 246.895Z" fill="#CBE2F7"/>
<path d="M395.156 260.91H368.38C367.787 260.91 367.191 261.376 367.055 261.948C366.918 262.519 367.291 262.985 367.881 262.985H394.66C395.25 262.985 395.846 262.519 395.983 261.948C396.12 261.376 395.746 260.91 395.156 260.91Z" fill="#CBE2F7"/>
<path d="M394.578 266.44H366.307C366.125 266.44 365.946 266.584 365.903 266.757C365.863 266.933 365.974 267.074 366.156 267.074H394.427C394.606 267.074 394.788 266.933 394.831 266.757C394.873 266.584 394.76 266.44 394.578 266.44Z" fill="#CBE2F7"/>
<path d="M394.227 267.901H365.958C365.779 267.901 365.597 268.045 365.555 268.218C365.512 268.394 365.626 268.535 365.807 268.535H394.077C394.256 268.535 394.437 268.394 394.48 268.218C394.523 268.045 394.409 267.901 394.227 267.901Z" fill="#CBE2F7"/>
<path d="M356.083 262.985H363.316C363.908 262.985 364.504 262.519 364.642 261.948C364.778 261.377 364.406 260.91 363.815 260.91H356.58C355.987 260.91 355.392 261.377 355.256 261.948C355.118 262.519 355.493 262.985 356.083 262.985Z" fill="#CBE2F7"/>
<path d="M391.055 277.657H364.278C363.685 277.657 363.091 278.123 362.956 278.694C362.817 279.265 363.19 279.734 363.781 279.734H390.558C391.148 279.734 391.745 279.265 391.883 278.694C392.019 278.123 391.646 277.657 391.055 277.657Z" fill="#CBE2F7"/>
<path d="M390.479 283.187H362.208C362.027 283.187 361.844 283.33 361.802 283.504C361.762 283.679 361.875 283.822 362.056 283.822H390.327C390.507 283.822 390.69 283.679 390.733 283.504C390.772 283.33 390.659 283.187 390.479 283.187Z" fill="#CBE2F7"/>
<path d="M390.13 284.648H361.86C361.677 284.648 361.497 284.791 361.454 284.965C361.415 285.14 361.528 285.283 361.708 285.283H389.978C390.161 285.283 390.341 285.14 390.383 284.965C390.425 284.791 390.31 284.648 390.13 284.648Z" fill="#CBE2F7"/>
<path d="M359.717 277.657H352.484C351.891 277.657 351.294 278.123 351.157 278.694C351.023 279.265 351.394 279.734 351.986 279.734H359.219C359.811 279.734 360.406 279.265 360.543 278.694C360.68 278.123 360.309 277.657 359.717 277.657Z" fill="#CBE2F7"/>
<path d="M398.641 223.4H376.156C374.616 223.4 373.478 222.018 373.822 220.572L374.668 217.031H402.353L401.322 221.34C401.033 222.546 399.921 223.4 398.641 223.4Z" fill="#EE9849"/>
<path d="M402.352 217.031L404.257 217.521H402.236L402.352 217.031Z" fill="#ED7D2B"/>
<path d="M415.628 295.383C415.628 295.892 415.414 296.357 415.064 296.693C414.811 296.936 414.488 297.112 414.128 297.191C413.992 297.221 413.849 297.236 413.707 297.236H359.61C358.556 297.236 357.691 296.402 357.691 295.383C357.691 294.874 357.905 294.41 358.253 294.072C358.603 293.736 359.081 293.528 359.61 293.528H413.707C413.849 293.528 413.992 293.546 414.128 293.576C414.987 293.762 415.628 294.502 415.628 295.383Z" fill="#EE9849"/>
<path d="M414.127 293.528L421.193 295.037L414.127 297.236V293.528Z" fill="#739AF0"/>
<path d="M371.531 293.528V297.236H359.613C358.557 297.236 357.691 296.402 357.691 295.383C357.691 294.874 357.907 294.41 358.255 294.072C358.603 293.736 359.084 293.528 359.613 293.528H371.531Z" fill="#739AF0"/>
</svg>
