<svg width="20" height="20" viewBox="0 0 20 20" fill="none" xmlns="http://www.w3.org/2000/svg">
<path fill-rule="evenodd" clip-rule="evenodd" d="M15.7197 0.21967C16.0126 -0.0732233 16.4874 -0.0732233 16.7803 0.21967L19.7803 3.21967C20.0732 3.51256 20.0732 3.98744 19.7803 4.28033L10.7803 13.2803C10.6656 13.3951 10.5167 13.4695 10.3561 13.4925L6.85607 13.9925C6.62238 14.0258 6.3866 13.9473 6.21968 13.7803C6.05275 13.6134 5.97416 13.3776 6.00755 13.1439L6.50755 9.64393C6.53049 9.48329 6.60493 9.33442 6.71968 9.21967L15.7197 0.21967ZM7.95711 10.1036L7.63389 12.3661L9.89645 12.0429L18.1893 3.75L16.25 1.81066L7.95711 10.1036Z" fill="#808080"/>
<path fill-rule="evenodd" clip-rule="evenodd" d="M3.15714 4.45714C2.21826 4.45714 1.45714 5.21826 1.45714 6.15714V11.9857C1.45714 12.3881 1.13095 12.7143 0.728571 12.7143C0.326193 12.7143 0 12.3881 0 11.9857V6.15714C0 4.4135 1.4135 3 3.15714 3H10.4429C10.8452 3 11.1714 3.32619 11.1714 3.72857C11.1714 4.13095 10.8452 4.45714 10.4429 4.45714H3.15714ZM16.2714 8.82857C16.6738 8.82857 17 9.15476 17 9.55714V16.8429C17 18.5865 15.5865 20 13.8429 20H3.15714C1.4135 20 0 18.5865 0 16.8429V15.8714C0 15.4691 0.326193 15.1429 0.728571 15.1429C1.13095 15.1429 1.45714 15.4691 1.45714 15.8714V16.8429C1.45714 17.7817 2.21826 18.5429 3.15714 18.5429H13.8429C14.7817 18.5429 15.5429 17.7817 15.5429 16.8429V9.55714C15.5429 9.15476 15.8691 8.82857 16.2714 8.82857Z" fill="#808080"/>
</svg>
