<svg width="11" height="7" viewBox="0 0 11 7" fill="none" xmlns="http://www.w3.org/2000/svg">
<path fill-rule="evenodd" clip-rule="evenodd" d="M0.0857612 0.112602C0.220765 -0.016776 0.467009 -0.0377523 0.635763 0.0657502L5.85314 3.26574C5.94597 3.32267 6 3.40887 6 3.5C6 3.59114 5.94597 3.67733 5.85314 3.73426L0.635763 6.93425C0.467009 7.03775 0.220765 7.01678 0.0857612 6.8874C-0.0492422 6.75802 -0.0218817 6.56923 0.146873 6.46573L4.98231 3.5L0.146873 0.53427C-0.0218817 0.430768 -0.0492422 0.24198 0.0857612 0.112602Z" fill="#7B7B7B"/>
<path fill-rule="evenodd" clip-rule="evenodd" d="M5.08576 0.112602C5.22076 -0.016776 5.46701 -0.0377523 5.63576 0.0657502L10.8531 3.26574C10.946 3.32267 11 3.40887 11 3.5C11 3.59114 10.946 3.67733 10.8531 3.73426L8.76619 5.01426C8.59744 5.11776 8.35119 5.09678 8.21619 4.9674C8.08118 4.83803 8.10855 4.64924 8.2773 4.54574L9.98231 3.5L5.14687 0.53427C4.97812 0.430768 4.95076 0.24198 5.08576 0.112602ZM7.00122 5.71259C7.13622 5.84196 7.10886 6.03075 6.94011 6.13425L5.63576 6.93425C5.46701 7.03775 5.22076 7.01678 5.08576 6.8874C4.95076 6.75802 4.97812 6.56923 5.14687 6.46573L6.45122 5.66573C6.61997 5.56223 6.86622 5.58321 7.00122 5.71259Z" fill="#7B7B7B"/>
</svg>
